<?xml version="1.0" encoding="utf-8"?>
<!-- Generator: Adobe Illustrator 24.0.0, SVG Export Plug-In . SVG Version: 6.00 Build 0)  -->
<svg version="1.1" id="Capa_1" xmlns="http://www.w3.org/2000/svg" xmlns:xlink="http://www.w3.org/1999/xlink" x="0px" y="0px"
	 viewBox="0 0 1080 1080" style="enable-background:new 0 0 1080 1080;" xml:space="preserve">
<style type="text/css">
	.st0{fill:#FFFFFF;}
</style>
<g>
	<path d="M540.7,292.5c-132.1,0-239.1,107-239.1,239.1h0v102.9H404c289.9-69.7-80.5-157.5,113.7-203.7h0v-4.4
		c0-7.1,5.8-12.9,12.9-12.9c7.1,0,12.9,5.8,12.9,12.9v4.4h0c-157.4,67.4,305.2,81.4,61.5,203.7h174.8V531.6
		C779.8,399.6,672.7,292.5,540.7,292.5z"/>
	<g>
		<path d="M308.1,737.7c0,8.2-1.2,15.4-3.7,21.6c-2.5,6.2-5.9,11.3-10.4,15.4c-4.5,4.1-9.9,7.2-16.2,9.3c-6.3,2.1-13.4,3.1-21.1,3.1
			c-1.8,0-3.7-0.1-5.9-0.2c-2.2-0.1-4.5-0.3-6.8-0.5c-2.3-0.3-4.7-0.6-7-1.1c-2.4-0.5-4.5-1.1-6.5-1.8c-5.4-2-8-5.5-8-10.5v-73.5
			c0-2.1,0.5-3.7,1.6-4.8c1.1-1.1,2.6-2.1,4.7-2.8c4.2-1.3,8.7-2.2,13.4-2.6c4.7-0.4,9.1-0.6,13-0.6c7.9,0,15.1,1,21.6,2.9
			c6.5,2,12,5,16.7,9c4.6,4.1,8.2,9.2,10.8,15.3C306.8,722.2,308.1,729.4,308.1,737.7z M283.1,738.1c0-10-2.4-17.4-7.3-22.3
			c-4.9-4.9-11.2-7.3-19.1-7.3c-1.9,0-3.6,0.1-5.3,0.2c-1.6,0.1-3.3,0.3-4.9,0.6v57.4c1.3,0.3,3,0.5,4.9,0.7
			c1.9,0.2,3.7,0.2,5.5,0.2c8,0,14.4-2.4,19.1-7.3C280.7,755.3,283.1,747.9,283.1,738.1z"/>
		<path d="M339.5,760.5c1.3,3.8,3.5,6.6,6.7,8.2c3.2,1.6,6.9,2.4,11.1,2.4c3.8,0,7.5-0.5,10.8-1.6c3.4-1.1,6.1-2.2,8.2-3.5
			c1.4,0.9,2.5,2.1,3.4,3.6c0.9,1.5,1.4,3.1,1.4,4.8c0,2.1-0.6,3.9-1.9,5.5c-1.3,1.6-3,2.9-5.3,3.9c-2.2,1.1-4.9,1.8-8,2.3
			c-3.1,0.5-6.4,0.8-10.1,0.8c-5.4,0-10.4-0.8-15-2.3c-4.6-1.5-8.5-3.8-11.8-6.7c-3.3-3-5.9-6.7-7.8-11.2c-1.9-4.5-2.8-9.7-2.8-15.8
			c0-5.9,0.9-10.9,2.8-15.2c1.9-4.3,4.4-7.9,7.5-10.7c3.2-2.8,6.8-4.9,10.8-6.2c4.1-1.3,8.3-2,12.6-2c4.7,0,8.9,0.7,12.8,2.1
			c3.9,1.4,7.2,3.4,10,6c2.8,2.6,5,5.6,6.5,9.2c1.6,3.6,2.3,7.5,2.3,11.7c0,2.9-0.8,5.1-2.3,6.6c-1.6,1.5-3.8,2.4-6.6,2.9
			L339.5,760.5z M352.6,732.3c-3.9,0-7.2,1.2-9.8,3.6c-2.6,2.4-4.1,5.9-4.6,10.5l26.2-4.3c-0.2-2.4-1.2-4.6-3.2-6.7
			C359.3,733.3,356.4,732.3,352.6,732.3z"/>
		<path d="M471.7,704.2c0,2.4-0.6,4.5-1.9,6.3c-1.2,1.8-2.7,3.2-4.3,4.2c-2.7-1.7-5.6-3.3-8.7-4.6c-3.1-1.3-6.9-2-11.2-2
			c-8.2,0-14.7,2.6-19.3,7.8c-4.6,5.2-6.9,12.6-6.9,22.2c0,9.9,2.4,17.3,7.3,22.3c4.9,5,11.6,7.5,20.1,7.5c4.4,0,8.2-0.6,11.3-1.8
			c3.1-1.2,6-2.6,8.7-4.2c1.5,1.2,2.8,2.8,3.8,4.7c1,1.9,1.5,4,1.5,6.4c0,2.1-0.5,4-1.6,5.8c-1.1,1.8-3,3.3-5.6,4.6
			c-2.1,1-4.8,2-8.3,2.9c-3.5,0.9-7.8,1.3-13,1.3c-6.9,0-13.3-1-19.3-2.9c-6-2-11.2-4.9-15.6-9c-4.4-4-7.9-9.1-10.4-15.4
			c-2.5-6.2-3.8-13.6-3.8-22.2c0-8,1.3-15.1,3.8-21.3c2.5-6.2,5.9-11.3,10.3-15.5c4.3-4.2,9.4-7.3,15.1-9.5
			c5.8-2.2,11.9-3.2,18.5-3.2c9.4,0,16.6,1.5,21.8,4.5C469.2,696,471.7,699.7,471.7,704.2z"/>
		<path d="M511.4,716.8c4.8,0,9.1,0.5,13,1.4c3.9,1,7.2,2.4,9.9,4.5s4.9,4.6,6.4,7.7c1.5,3.1,2.3,6.8,2.3,11v31
			c0,2.4-0.6,4.3-1.9,5.7c-1.2,1.4-2.7,2.6-4.5,3.6c-2.8,1.7-6.3,3.1-10.4,4c-4.1,0.9-8.8,1.4-14,1.4c-9.4,0-16.9-1.8-22.5-5.4
			c-5.6-3.6-8.4-9.1-8.4-16.5c0-6.3,1.9-11.1,5.6-14.4c3.8-3.3,9.5-5.4,17.3-6.2l18.3-1.9v-1.5c0-2.9-1.2-5.1-3.6-6.4
			c-2.4-1.4-5.8-2.1-10.3-2.1c-3.5,0-6.9,0.4-10.2,1.2c-3.3,0.8-6.3,1.8-9,2.9c-1.1-0.7-2-1.9-2.8-3.4c-0.8-1.5-1.2-3.1-1.2-4.9
			c0-4,2.1-6.9,6.3-8.6c2.7-1,5.7-1.8,9.3-2.3C504.6,717,508.1,716.8,511.4,716.8z M512.3,771.5c2,0,4-0.2,6-0.6
			c2-0.4,3.5-0.9,4.5-1.6v-12.6l-11.3,1c-2.9,0.3-5.3,0.9-7.1,2c-1.8,1.1-2.7,2.6-2.7,4.7c0,2.2,0.8,3.9,2.5,5.2
			C505.8,770.9,508.5,771.5,512.3,771.5z"/>
		<path d="M558.2,784.7v-43.2c0-4.5,0.8-8.3,2.3-11.5c1.5-3.2,3.5-5.7,6-7.7c2.5-2,5.3-3.4,8.6-4.3c3.2-0.9,6.7-1.3,10.2-1.3
			c4.8,0,8.9,0.6,12.4,1.9c3.5,1.2,6.6,2.8,9.3,4.6c2.8-2.2,6-3.8,9.4-4.9c3.4-1.1,7.1-1.6,10.9-1.6c4.9,0,9.5,0.6,13.9,1.9
			c4.4,1.3,8.2,3,11.2,5.1c1.8,1.3,3.2,2.7,4.3,4.1c1,1.5,1.5,3.4,1.5,5.8v42.4c0,3.8-0.9,6.4-2.7,7.8c-1.8,1.3-4.8,2-8.9,2
			c-2,0-3.8-0.1-5.5-0.3c-1.6-0.2-2.9-0.5-3.8-0.8v-48.9c-1-0.5-2.3-1.1-3.8-1.7c-1.6-0.6-3.3-0.9-5.2-0.9c-2.7,0-4.9,0.7-6.7,2.1
			c-1.8,1.4-2.7,3.6-2.7,6.7v34c0,3.8-0.9,6.4-2.7,7.8c-1.8,1.3-4.7,2-8.9,2c-2,0-3.8-0.1-5.5-0.3c-1.6-0.2-3-0.5-4-0.8v-45.3
			c0-0.5,0-0.9,0.1-1.4c0-0.5,0.1-0.9,0.2-1.4c-1.3-1-2.7-1.8-4.3-2.5c-1.6-0.6-3.3-1-5.1-1c-2.8,0-5.1,0.7-6.7,2.1
			c-1.6,1.4-2.5,3.6-2.5,6.7v34c0,3.8-0.9,6.4-2.7,7.8c-1.8,1.3-4.7,2-8.9,2c-2,0-3.8-0.1-5.5-0.3
			C560.6,785.2,559.3,785,558.2,784.7"/>
		<path d="M693.2,708c-2.1,2.2-5,3.3-8.4,3.3s-6.3-1.1-8.4-3.3c-2.1-2.2-3.2-4.9-3.2-8.1c0-3.1,1.1-5.8,3.2-8c2.1-2.2,5-3.3,8.4-3.3
			s6.3,1.1,8.4,3.3c2.2,2.2,3.2,4.9,3.2,8C696.4,703.1,695.4,705.8,693.2,708z M674.4,728.3c0-3.8,0.9-6.5,2.7-7.8
			c1.8-1.4,4.7-2.1,8.9-2.1c2,0,3.8,0.1,5.5,0.4c1.6,0.3,2.9,0.5,3.8,0.8v56.4c0,3.8-0.9,6.4-2.7,7.8c-1.8,1.3-4.7,2-8.9,2
			c-2,0-3.8-0.1-5.5-0.3c-1.6-0.2-2.9-0.5-3.8-0.8V728.3z"/>
		<path d="M732.3,742.7v33.3c0,3.8-0.9,6.4-2.7,7.8c-1.8,1.3-4.7,2-8.9,2c-2,0-3.8-0.1-5.5-0.3c-1.6-0.2-3-0.5-4-0.8v-42.5
			c0-8.1,2.7-14.4,8.2-18.8c5.4-4.4,13.2-6.6,23.1-6.6c5.6,0,10.7,0.6,15.3,1.9c4.6,1.3,8.4,3,11.3,5.1c1.8,1.3,3.2,2.7,4.3,4.1
			c1,1.5,1.5,3.4,1.5,5.8v42.4c0,3.8-0.9,6.4-2.7,7.8c-1.8,1.3-4.8,2-8.9,2c-2,0-3.8-0.1-5.5-0.3c-1.6-0.2-2.9-0.5-3.8-0.8v-48.6
			c-1.6-0.8-3.2-1.5-5.1-2.1c-1.8-0.5-3.8-0.8-6-0.8c-3.2,0-5.8,0.8-7.7,2.3C733.2,737.1,732.3,739.5,732.3,742.7z"/>
		<path d="M857.6,751.8c0,5.4-0.8,10.3-2.5,14.6c-1.6,4.3-4,8-7.1,11c-3.1,3-6.7,5.4-11,7c-4.3,1.6-9.1,2.5-14.4,2.5
			s-10.1-0.8-14.5-2.4c-4.3-1.6-8.1-3.9-11.1-6.9c-3.1-3-5.4-6.7-7.1-11c-1.6-4.3-2.5-9.3-2.5-14.8c0-5.3,0.8-10.1,2.5-14.5
			c1.7-4.3,4.1-8,7.1-11c3.1-3,6.8-5.4,11.1-7c4.3-1.6,9.1-2.5,14.3-2.5c5.2,0,10,0.8,14.3,2.5c4.3,1.6,8,4,11,7.1
			c3.1,3.1,5.4,6.7,7.1,11C856.7,741.7,857.6,746.5,857.6,751.8z M822.6,733.2c-4.3,0-7.6,1.6-10,4.8c-2.4,3.2-3.6,7.8-3.6,13.7
			c0,6.1,1.2,10.8,3.5,13.9c2.3,3.2,5.7,4.7,10.1,4.7c4.4,0,7.8-1.6,10.1-4.8c2.3-3.2,3.5-7.8,3.5-13.9c0-5.9-1.2-10.4-3.6-13.7
			C830.2,734.9,826.9,733.2,822.6,733.2z"/>
	</g>
</g>
</svg>
