<svg xmlns="http://www.w3.org/2000/svg" xmlns:xlink="http://www.w3.org/1999/xlink" version="1.1" width="3682.875pt" height="2655.3167pt" viewBox="0 0 3682.875 2655.3167">
<defs>
<clipPath id="clip_1">
<path transform="matrix(4.1666667,0,0,-4.1666667,0,2655.3167)" d="M21 21H862.89V616.276H21Z"/>
</clipPath>
<clipPath id="clip_2">
<path transform="matrix(4.1666667,0,0,-4.1666667,0,2655.3167)" d="M0 0H883.89V637.276H0Z"/>
</clipPath>
<clipPath id="clip_3">
<path transform="matrix(4.1666667,0,0,-4.1666667,0,2655.3167)" d="M0 0H883.89V637.276H0Z"/>
</clipPath>
<clipPath id="clip_4">
<path transform="matrix(4.1666667,0,0,-4.1666667,0,2655.3167)" d="M0 0H883.89V637.276H0Z"/>
</clipPath>
<clipPath id="clip_5">
<path transform="matrix(4.1666667,0,0,-4.1666667,0,2655.3167)" d="M0 0H883.89V637.276H0Z"/>
</clipPath>
<clipPath id="clip_6">
<path transform="matrix(4.1666667,0,0,-4.1666667,0,2655.3167)" d="M0 0H883.89V637.276H0Z"/>
</clipPath>
<clipPath id="clip_7">
<path transform="matrix(4.1666667,0,0,-4.1666667,0,2655.3167)" d="M0 0H883.89V637.276H0Z"/>
</clipPath>
<clipPath id="clip_8">
<path transform="matrix(4.1666667,0,0,-4.1666667,0,2655.3167)" d="M0 0H883.89V637.276H0Z"/>
</clipPath>
<clipPath id="clip_9">
<path transform="matrix(4.1666667,0,0,-4.1666667,0,2655.3167)" d="M0 0H883.89V637.276H0Z"/>
</clipPath>
<clipPath id="clip_10">
<path transform="matrix(4.1666667,0,0,-4.1666667,0,2655.3167)" d="M0 0H883.89V637.276H0Z"/>
</clipPath>
<clipPath id="clip_11">
<path transform="matrix(4.1666667,0,0,-4.1666667,0,2655.3167)" d="M0 0H883.89V637.276H0Z"/>
</clipPath>
<clipPath id="clip_12">
<path transform="matrix(4.1666667,0,0,-4.1666667,0,2655.3167)" d="M0 0H883.89V637.276H0Z"/>
</clipPath>
<clipPath id="clip_13">
<path transform="matrix(4.1666667,0,0,-4.1666667,0,2655.3167)" d="M0 0H883.89V637.276H0Z"/>
</clipPath>
<clipPath id="clip_14">
<path transform="matrix(4.1666667,0,0,-4.1666667,0,2655.3167)" d="M0 0H883.89V637.276H0Z"/>
</clipPath>
<clipPath id="clip_15">
<path transform="matrix(4.1666667,0,0,-4.1666667,0,2655.3167)" d="M0 0H883.89V637.276H0Z"/>
</clipPath>
<clipPath id="clip_16">
<path transform="matrix(4.1666667,0,0,-4.1666667,0,2655.3167)" d="M0 0H883.89V637.276H0Z"/>
</clipPath>
<clipPath id="clip_17">
<path transform="matrix(4.1666667,0,0,-4.1666667,0,2655.3167)" d="M0 0H883.89V637.276H0Z"/>
</clipPath>
<clipPath id="clip_18">
<path transform="matrix(4.1666667,0,0,-4.1666667,0,2655.3167)" d="M0 0H883.89V637.276H0Z"/>
</clipPath>
<clipPath id="clip_19">
<path transform="matrix(4.1666667,0,0,-4.1666667,0,2655.3167)" d="M0 0H883.89V637.276H0Z"/>
</clipPath>
<clipPath id="clip_20">
<path transform="matrix(4.1666667,0,0,-4.1666667,0,2655.3167)" d="M0 0H883.89V637.276H0Z"/>
</clipPath>
<clipPath id="clip_21">
<path transform="matrix(4.1666667,0,0,-4.1666667,0,2655.3167)" d="M0 0H883.89V637.276H0Z"/>
</clipPath>
<clipPath id="clip_22">
<path transform="matrix(4.1666667,0,0,-4.1666667,0,2655.3167)" d="M0 0H883.89V637.276H0Z"/>
</clipPath>
<clipPath id="clip_23">
<path transform="matrix(4.1666667,0,0,-4.1666667,0,2655.3167)" d="M0 0H883.89V637.276H0Z"/>
</clipPath>
<clipPath id="clip_24">
<path transform="matrix(4.1666667,0,0,-4.1666667,0,2655.3167)" d="M0 0H883.89V637.276H0Z"/>
</clipPath>
<clipPath id="clip_25">
<path transform="matrix(4.1666667,0,0,-4.1666667,0,2655.3167)" d="M0 0H883.89V637.276H0Z"/>
</clipPath>
<path id="font_26_47" d="M.076171878 .71777346H.17333985V.0859375H.5366211V0H.076171878V.71777346Z"/>
<path id="font_26_82" d="M.27197267 .057617189C.33024089 .057617189 .37019859 .07964579 .3918457 .123703 .41349284 .16776021 .4243164 .21677144 .4243164 .2707367 .4243164 .31950379 .4165039 .35917155 .4008789 .38974 .3761393 .43785606 .3334961 .46191407 .27294923 .46191407 .21923828 .46191407 .18017578 .44143168 .15576172 .40046693 .13134766 .35950218 .119140628 .31008403 .119140628 .25221253 .119140628 .1966095 .13134766 .15027364 .15576172 .113204959 .18017578 .076146449 .21891277 .057617189 .27197267 .057617189M.27539063 .53808596C.34277345 .53808596 .3997396 .5156453 .44628907 .47076417 .49283854 .42588298 .5161133 .35985819 .5161133 .27268983 .5161133 .1884613 .49560548 .11886088 .45458985 .06388855 .41357423 .008926392 .3499349-.018554688 .26367188-.018554688 .19173177-.018554688 .13460286 .00575765 .092285159 .054382326 .04996745 .103006999 .028808594 .16829936 .028808594 .2502594 .028808594 .33806864 .05110677 .4079895 .095703128 .46002198 .14029949 .51206466 .20019531 .53808596 .27539063 .53808596M.27246095 .5361328V.5361328Z"/>
<path id="font_26_74" d="M.24902344 .53222659C.29003907 .53222659 .32584635 .5220744 .3564453 .50177 .37304688 .49030558 .38997398 .4736023 .40722657 .45166017V.5185547H.48828126V.04234314C.48828126-.024154664 .47851563-.07663473 .45898438-.115097049 .42252604-.18615215 .35367839-.22167969 .2524414-.22167969 .1961263-.22167969 .14876302-.20906575 .11035156-.18383789 .0719401-.15861003 .05045573-.119140628 .045898439-.06542969H.1352539C.13948567-.08873495 .14794922-.10669454 .16064453-.11930847 .1805013-.13872783 .2117513-.1484375 .25439454-.1484375 .32177735-.1484375 .3658854-.12467448 .38671876-.07714844 .39908854-.04916382 .40478517 .0007985433 .4038086 .07273865 .38623048 .04588318 .36507163 .025904337 .34033204 .012802124 .31559245-.000289917 .2828776-.0068359377 .2421875-.0068359377 .18554688-.0068359377 .13598633 .013280232 .09350586 .053512575 .05102539 .09375509 .029785157 .16030376 .029785157 .25315858 .029785157 .34080506 .051188154 .40922547 .09399414 .4584198 .13680013 .5076243 .18847656 .53222659 .24902344 .53222659M.40722657 .26342774C.40722657 .328125 .39388023 .37607829 .3671875 .4072876 .34049479 .43849693 .30647788 .45410157 .26513673 .45410157 .20328777 .45410157 .16097005 .4251658 .1381836 .3672943 .12613933 .33641053 .12011719 .29593406 .12011719 .24586487 .12011719 .1870168 .13208008 .14223226 .15600586 .11151123 .17993164 .0807902 .21207683 .06542969 .2524414 .06542969 .31559245 .06542969 .36002604 .09387716 .3857422 .1507721 .4000651 .18295796 .40722657 .22050984 .40722657 .26342774M.25927735 .5361328V.5361328Z"/>
<path id="font_26_3" d="M0 0Z"/>
<path id="font_26_39" d="M.3515625 .08300781C.3844401 .08300781 .41145835 .08642578 .4326172 .09326172 .4703776 .10595703 .50130209 .1303711 .5253906 .1665039 .5445964 .19547527 .55843099 .23258464 .56689456 .27783204 .57177737 .30485026 .57421877 .32991538 .57421877 .35302735 .57421877 .44189454 .55655929 .51090499 .52124026 .5600586 .48592124 .6092122 .42903648 .63378909 .35058595 .63378909H.17822266V.08300781H.3515625M.080566409 .71777346H.37109376C.46972657 .71777346 .54622396 .6827545 .60058596 .6127167 .64908859 .54952499 .67333987 .46857707 .67333987 .36987306 .67333987 .2936503 .6590169 .22475688 .6303711 .16319275 .57991537 .054397584 .49316407 0 .3701172 0H.080566409V.71777346Z"/>
<path id="font_26_72" d="M.28222657 .53515627C.31933595 .53515627 .355306 .52644857 .39013673 .5090332 .42496745 .49161784 .4514974 .4690806 .46972657 .4414215 .4873047 .41505433 .49902345 .3842977 .5048828 .3491516 .5100911 .32506309 .5126953 .28647868 .5126953 .23339844H.12939453C.13102214 .18033855 .14355469 .13777669 .16699219 .10571289 .19042969 .073649089 .22672527 .057617189 .2758789 .057617189 .32177735 .057617189 .35839845 .07261658 .3857422 .10261536 .4013672 .12003072 .4124349 .14018758 .4189453 .16308594H.5053711C.50309249 .14398194 .49552409 .122690837 .48266603 .09921265 .46980796 .07574463 .45540367 .05656433 .43945313 .041671754 .4127604 .01576233 .37972007-.0017242432 .34033204-.010787964 .3191732-.01596578 .2952474-.018554688 .2685547-.018554688 .20345052-.018554688 .14827474 .0051472985 .103027347 .05255127 .05777995 .09995524 .03515625 .16634114 .03515625 .25170899 .03515625 .33576457 .057942708 .40401713 .103515628 .45646668 .14908855 .5089264 .20865886 .53515627 .28222657 .53515627M.42236329 .30371095C.41878257 .34191896 .41048179 .37245179 .39746095 .39530946 .3733724 .4377594 .33317057 .45898438 .27685548 .45898438 .23649089 .45898438 .20263672 .44437156 .17529297 .41514588 .14794922 .3859202 .13346355 .34877525 .13183594 .30371095H.42236329M.27392579 .5361328V.5361328Z"/>
<path id="font_26_38" d="M.37841798 .7373047C.46923829 .7373047 .53971359 .71332809 .58984377 .66537478 .63997396 .61742147 .66780599 .5629476 .67333987 .5019531H.5786133C.5678711 .54817709 .5464681 .58479818 .5144043 .6118164 .48234049 .63883468 .43733726 .65234377 .37939454 .65234377 .3087565 .65234377 .25170899 .62754318 .20825196 .5779419 .16479492 .52834066 .1430664 .45231629 .1430664 .34986878 .1430664 .26594544 .16267903 .19788106 .2019043 .14567566 .24112956 .09348043 .29964195 .06738281 .3774414 .06738281 .449056 .06738281 .50358077 .094823207 .5410156 .14970398 .5608724 .17860413 .5756836 .21659343 .5854492 .26367188H.6801758C.6717122 .18815105 .64371749 .12483724 .5961914 .07373047 .5392253 .012207031 .46240235-.018554688 .36572267-.018554688 .2823893-.018554688 .21240235 .006688436 .15576172 .057174684 .081217449 .12394714 .043945314 .2270406 .043945314 .36645509 .043945314 .47232057 .0719401 .5591278 .12792969 .62687686 .18847656 .7004954 .27197267 .7373047 .37841798 .7373047M.35888673 .7373047V.7373047Z"/>
<path id="font_26_68" d="M.13183594 .1394043C.13183594 .114095058 .14111328 .09413656 .15966797 .07952881 .17822266 .06492106 .20019531 .057617189 .22558594 .057617189 .2565104 .057617189 .28645835 .06471761 .3154297 .07891846 .3642578 .10247803 .38867188 .14127605 .38867188 .1953125V.26611329C.3779297 .25886027 .36409507 .2528127 .34716798 .24797058 .33024089 .24313863 .3136393 .23983257 .29736329 .23805237L.24414063 .23184204C.21223958 .22799683 .1883138 .22153218 .17236328 .21244812 .14534505 .19718933 .13183594 .17284139 .13183594 .1394043M.34472657 .31689454C.36490885 .3194987 .37841798 .32796226 .3852539 .34228517 .38916017 .35012818 .39111329 .36140443 .39111329 .3761139 .39111329 .40618388 .38045249 .42799888 .35913087 .44155885 .33780924 .455129 .30729167 .46191407 .26757813 .46191407 .22167969 .46191407 .18912761 .44948326 .16992188 .42462159 .15917969 .4108785 .15218099 .39043174 .14892578 .36328126H.06689453C.06852213 .42791749 .08943685 .47288514 .12963867 .4981842 .1698405 .5234833 .21647136 .5361328 .26953126 .5361328 .3310547 .5361328 .38102214 .52441409 .4194336 .50097659 .45751954 .47753907 .4765625 .4410502 .4765625 .39151V.08985901C.4765625 .08073425 .47843424 .073404949 .48217774 .067871097 .48592124 .06233724 .4938151 .059570314 .5058594 .059570314 .5097656 .059570314 .51416018 .059814454 .51904299 .060302736 .5239258 .060791017 .5291341 .061523439 .53466799 .0625V-.0028076173C.5209961-.00676473 .5105794-.009236653 .50341799-.010223389 .4962565-.011220296 .48649089-.01171875 .4741211-.01171875 .44384767-.01171875 .421875-.0009104411 .40820313 .020706177 .40104167 .032170614 .3959961 .048380536 .3930664 .06933594 .37516276 .045633954 .34944663 .025060019 .31591798 .0076141359 .2823893-.009831746 .2454427-.018554688 .20507813-.018554688 .15657552-.018554688 .11694336-.0037790936 .08618164 .025772095 .055419923 .055323285 .040039064 .092300418 .040039064 .13670349 .040039064 .18535869 .05517578 .22307332 .08544922 .24984741 .115722659 .2766215 .1554362 .29311119 .20458985 .2993164L.34472657 .31689454M.27197267 .5361328V.5361328Z"/>
<path id="font_26_80" d="M.064453128 .5234375H.15136719V.44921876C.17220052 .4749349 .19108074 .49365235 .20800781 .5053711 .23697917 .52522787 .26985679 .53515627 .30664063 .53515627 .34830729 .53515627 .38183595 .52490237 .40722657 .50439456 .42154948 .49267579 .4345703 .4754232 .44628907 .45263673 .4658203 .4806315 .48876954 .5013835 .5151367 .5148926 .5415039 .5284017 .5711263 .53515627 .6040039 .53515627 .6743164 .53515627 .72216799 .5097402 .7475586 .45890809 .76123049 .43154399 .7680664 .3947296 .7680664 .34846498V0H.6767578V.36367799C.6767578 .39853923 .6680501 .42248536 .65063479 .43551637 .6332194 .44855754 .6119792 .45507813 .58691409 .45507813 .5524089 .45507813 .5227051 .44350688 .49780274 .42036439 .4729004 .39723207 .46044923 .35861717 .46044923 .30451966V0H.37109376V.3416748C.37109376 .37719728 .36686198 .4031016 .35839845 .41938783 .3450521 .4438324 .32014976 .4560547 .2836914 .4560547 .25048829 .4560547 .22029622 .44318138 .19311524 .4174347 .16593425 .3916982 .15234375 .34510295 .15234375 .27764894V0H.064453128V.5234375Z"/>
<path id="font_26_76" d="M.064453128 .5205078H.1538086V0H.064453128V.5205078M.064453128 .71777346H.1538086V.61816409H.064453128V.71777346Z"/>
<path id="font_26_81" d="M.064453128 .5234375H.14794922V.44921876C.1726888 .47981773 .19889324 .50179037 .2265625 .5151367 .25423179 .5284831 .2849935 .53515627 .31884767 .53515627 .3930664 .53515627 .44319663 .5092519 .46923829 .45744325 .4835612 .42910258 .49072267 .38853965 .49072267 .3357544V0H.4013672V.3299408C.4013672 .36188255 .39664714 .38762919 .38720704 .4071808 .37158204 .4397634 .34326173 .4560547 .3022461 .4560547 .28141276 .4560547 .2643229 .4539388 .25097657 .44970704 .22688802 .4425354 .20572917 .42819724 .1875 .4066925 .17285156 .38941957 .16333008 .37157694 .15893555 .35316468 .15454102 .3347524 .15234375 .30844117 .15234375 .27423097V0H.064453128V.5234375M.2709961 .5361328V.5361328Z"/>
<path id="font_26_17" d="M.08544922 .10644531H.1875V0H.08544922V.10644531Z"/>
<path id="font_26_71" d="M.12011719 .2553711C.12011719 .19923909 .1319987 .15224712 .15576172 .11439514 .17952474 .076543178 .21761067 .057617189 .27001954 .057617189 .31070964 .057617189 .3441569 .075154628 .37036134 .11022949 .39656578 .14531453 .40966798 .19565328 .40966798 .26124574 .40966798 .32748924 .39615885 .37651573 .36914063 .4083252 .3421224 .44014488 .3087565 .4560547 .26904298 .4560547 .22477214 .4560547 .18888347 .4390869 .16137696 .40515138 .13387044 .37121583 .12011719 .32128907 .12011719 .2553711M.2524414 .53222659C.29248048 .53222659 .32600913 .52381899 .35302735 .5070038 .36865235 .4972992 .38639323 .48031617 .40625 .4560547V.71875H.49072267V0H.4116211V.07229614C.39111329 .04023234 .36686198 .017074585 .3388672 .002822876 .3108724-.011428833 .2788086-.018554688 .24267578-.018554688 .18440755-.018554688 .13395183 .0059407555 .091308597 .05493164 .048665365 .10392252 .02734375 .16910808 .02734375 .25048829 .02734375 .32666017 .04679362 .39265953 .08569336 .44848634 .1245931 .5043132 .18017578 .53222659 .2524414 .53222659Z"/>
<path id="font_26_20" d="M.095703128 .4951172V.5625C.15917969 .5686849 .20345052 .5790202 .22851563 .59350588 .25358073 .6079915 .2722982 .6422526 .28466798 .69628909H.3540039V0H.2602539V.4951172H.095703128Z"/>
<clipPath id="clip_27">
<path transform="matrix(4.1666667,0,0,-4.1666667,0,2655.3167)" d="M0 0H883.89V637.276H0Z"/>
</clipPath>
<path id="font_26_26" d="M.5229492 .6875V.6104126C.5004883 .5888875 .47062174 .55110678 .4333496 .4970703 .39607749 .44303385 .3631185 .38476563 .33447267 .32226563 .30615235 .26139323 .28466798 .20589192 .27001954 .15576172 .26057945 .123535159 .24837239 .071614589 .23339844 0H.13623047C.15836589 .13335164 .20719402 .26605735 .28271485 .39811708 .3273112 .47553 .3741862 .5423686 .42333985 .5986328H.036621095V.6875H.5229492Z"/>
<path id="font_26_18" d="M.22753906 .71777346H.3017578L.07421875 0H0L.22753906 .71777346Z"/>
<path id="font_26_28" d="M.1328125 .16992188C.13541667 .12141927 .15413411 .087890628 .18896485 .06933594 .20686849 .059570314 .22705078 .0546875 .24951172 .0546875 .2915039 .0546875 .3273112 .07218424 .3569336 .107177738 .386556 .14217122 .4075521 .21321106 .41992188 .32029725 .40039063 .28938294 .3762207 .26765953 .3474121 .25512696 .31860353 .2425944 .28759767 .23632813 .25439454 .23632813 .18701172 .23632813 .13370769 .25727845 .09448242 .29917909 .05525716 .34108988 .03564453 .39501444 .03564453 .46095277 .03564453 .52429708 .05501302 .5800069 .09375 .6280823 .13248699 .67615768 .18961589 .7001953 .26513673 .7001953 .36702476 .7001953 .43733726 .6543579 .47607423 .5626831 .4975586 .5122986 .5083008 .449234 .5083008 .37348939 .5083008 .28799949 .49544273 .21225484 .46972657 .1462555 .42708335 .03638204 .35481773-.018554688 .2529297-.018554688 .18457031-.018554688 .13264974-.0006510417 .09716797 .03515625 .0616862 .07096354 .043945314 .115885417 .043945314 .16992188H.1328125M.26611329 .31347657C.300944 .31347657 .33276368 .32491557 .36157228 .34779359 .39038087 .3706716 .40478517 .4106649 .40478517 .46777345 .40478517 .51904299 .3918457 .557251 .3659668 .58239749 .3400879 .60754397 .3071289 .6201172 .26708985 .6201172 .2241211 .6201172 .19002278 .60575869 .16479492 .5770416 .13956706 .5483246 .12695313 .5099538 .12695313 .46192933 .12695313 .4164988 .13802083 .38039653 .16015625 .35362245 .18229167 .32685853 .21761067 .31347657 .26611329 .31347657Z"/>
<path id="font_26_29" d="M.110839847 .51660159H.21289063V.41015626H.110839847V.51660159M.110839847 .10644531H.21289063V0H.110839847V.10644531Z"/>
<path id="font_26_19" d="M.2705078 .7001953C.3610026 .7001953 .42643229 .66289779 .46679688 .5883026 .49804688 .5306447 .5136719 .45165 .5136719 .35131837 .5136719 .25620524 .49951173 .17754109 .4711914 .11532593 .43017579 .026072184 .3631185-.018554688 .27001954-.018554688 .18603516-.018554688 .123535159 .017929078 .08251953 .09089661 .048339845 .15180969 .03125 .23357137 .03125 .33618165 .03125 .41565959 .041503908 .48390199 .06201172 .5409088 .10042318 .6470998 .16992188 .7001953 .2705078 .7001953M.26953126 .061523439C.31510417 .061523439 .35139976 .08168539 .37841798 .12200928 .4054362 .16234334 .4189453 .23747762 .4189453 .3474121 .4189453 .42676798 .4091797 .49205528 .38964845 .5432739 .3701172 .59450277 .332194 .6201172 .2758789 .6201172 .2241211 .6201172 .1862793 .59580489 .16235352 .5471802 .13842774 .4985555 .12646485 .42692057 .12646485 .3322754 .12646485 .26105754 .13411458 .20381673 .14941406 .16055298 .17285156 .09453329 .21289063 .061523439 .26953126 .061523439Z"/>
</defs>
<path transform="matrix(4.1666667,0,0,-4.1666667,1829.7896,1853.2842)" stroke-width="13.058" stroke-linecap="butt" stroke-miterlimit="4" stroke-linejoin="miter" fill="none" stroke="#d71920" d="M0 0 120.296 69.453V208.359L0 277.812-120.296 208.359"/>
<g clip-path="url(#clip_1)">
<path transform="matrix(4.1666667,0,0,-4.1666667,1515.9937,1259.2346)" d="M0 0C-1.958 0-2.981 .152-3.067 .457-3.242 1.196-3.328 6.722-3.328 17.034V39.549 41.377 42.747C-3.328 43.792-3.545 44.314-3.977 44.314-4.107 44.314-4.258 44.27-4.431 44.183-7.112 42.921-9.1 42.312-10.396 42.356L-12.731 42.421C-13.207 42.421-13.444 42.225-13.444 41.834-13.444 41.442-13.166 41.246-12.607 41.246-12.35 41.246-11.599 41.311-10.354 41.442-9.84 41.485-9.454 41.181-9.196 40.528-8.896 39.745-8.745 37.7-8.745 34.394V24.213C-10.225 26.344-12.444 27.41-15.402 27.41-19.231 27.41-22.331 26.011-24.702 23.215-27.074 20.418-28.259 16.77-28.259 12.269-28.259 7.899-27.074 4.305-24.702 1.487-22.331-1.332-19.318-2.741-15.663-2.741-13.096-2.741-10.878-1.806-9.006 .065L-9.072-1.958C-9.072-2.48-8.876-2.741-8.484-2.741-8.354-2.741-7.985-2.573-7.375-2.237-5.896-1.399-4.09-.979-1.958-.979H-1.436-.326 0C.609-.979 .914-.827 .914-.522 .914-.174 .609 0 0 0M-9.235 2.676C-9.561 1.544-10.269 .576-11.356-.228-12.444-1.034-13.662-1.436-15.01-1.436-16.099-1.436-17.154-1.055-18.176-.294-19.199 .467-19.97 1.436-20.493 2.611-21.711 5.394-22.32 8.745-22.32 12.661-22.32 16.75-21.624 20.013-20.232 22.45-18.84 24.887-16.968 26.105-14.619 26.105-12.792 26.105-11.29 25.365-10.116 23.886-9.202 22.712-8.745 20.036-8.745 15.859-8.745 8.201-8.908 3.807-9.235 2.676M26.627 5.743C26.322 5.743 26.083 5.569 25.909 5.221 24.691 3.002 23.56 1.501 22.516 .718 21.471-.065 20.078-.457 18.339-.457 15.293-.457 12.932 .724 11.258 3.087 9.582 5.449 8.745 8.82 8.745 13.198 8.745 14.499 8.853 15.864 9.071 17.296 13.988 17.425 16.598 17.49 16.903 17.49H21.471C23.777 17.447 25.626 17.533 27.019 17.752 26.888 20.579 25.779 22.896 23.69 24.702 21.602 26.507 19.013 27.41 15.924 27.41 12.182 27.41 9.06 25.952 6.559 23.038 4.056 20.122 2.806 16.489 2.806 12.139 2.806 7.962 4.122 4.459 6.755 1.632 9.387-1.197 12.661-2.611 16.577-2.611 19.709-2.611 22.211-1.654 24.082 .261 24.777 .957 25.463 1.86 26.138 2.969 26.812 4.079 27.149 4.851 27.149 5.286 27.149 5.59 26.975 5.743 26.627 5.743M9.267 18.6C10.137 23.821 12.335 26.432 15.859 26.432 19.426 26.432 21.297 23.821 21.471 18.6Z" fill="#231f20"/>
<path transform="matrix(4.1666667,0,0,-4.1666667,1505.472,1468.4304)" d="M0 0C-1.4-1.649-3.047-2.99-4.941-4.026-6.835-5.104-9.027-5.664-11.518-5.706-15.298-5.706-18.616-4.379-21.472-1.723-24.431 .933-25.951 5.235-26.033 11.183-25.951 17.195-24.429 21.55-21.468 24.249-18.61 26.904-15.289 28.211-11.505 28.168-9.017 28.125-6.827 27.596-4.935 26.578-3.043 25.54-1.398 24.151 0 22.413L-4.754 18.057C-6.38 20.296-8.551 21.457-11.267 21.543-16.741 21.628-19.52 18.174-19.602 11.183-19.52 4.234-16.742 .813-11.268 .919-8.552 .961-6.381 2.113-4.755 4.372ZM22.213-2.393H22.09C21.493-3.519 20.567-4.347 19.313-4.878 18.079-5.43 16.372-5.706 14.192-5.706 10.613-5.663 7.857-4.687 5.924-2.775 3.888-.906 2.87 1.484 2.87 4.394 2.87 7.176 3.754 9.481 5.523 11.308 7.292 13.177 9.883 14.133 13.297 14.176H22.213V17.666C22.255 20.59 20.064 22.01 15.639 21.925 14.034 21.925 12.769 21.755 11.843 21.413 10.876 21.007 10.114 20.324 9.559 19.364L4.497 23.351C6.943 26.648 10.552 28.253 15.322 28.168 19.351 28.211 22.569 27.424 24.975 25.81 27.379 24.153 28.603 21.306 28.644 17.27V-5.324H22.213ZM22.213 8.701H14.484C10.731 8.615 8.876 7.287 8.919 4.714 8.919 3.587 9.403 2.631 10.372 1.844 11.299 .972 12.835 .537 14.978 .537 17.678 .494 19.585 .824 20.698 1.525 21.708 2.227 22.213 3.821 22.213 6.309ZM37.758 27.754H44.201V24.249H44.325C46.513 26.862 49.392 28.168 52.961 28.168 55.256 28.125 57.104 27.733 58.507 26.989 59.888 26.161 61.152 25.109 62.299 23.834 64.891 26.766 68.365 28.211 72.721 28.168 75.461 28.168 77.968 27.201 80.242 25.268 82.494 23.314 83.663 20.445 83.748 16.664V-5.324H77.311V14.395C77.311 16.714 76.694 18.479 75.462 19.692 74.23 20.926 72.641 21.543 70.696 21.543 68.75 21.543 67.151 20.926 65.897 19.692 64.622 18.479 63.984 16.714 63.984 14.395V-5.324H57.553V14.395C57.553 16.714 56.937 18.479 55.705 19.692 54.451 20.926 52.852 21.543 50.907 21.543 48.961 21.543 47.372 20.926 46.141 19.692 44.843 18.479 44.195 16.714 44.195 14.395V-5.324H37.758ZM93.818 27.754H100.249V-5.3239996H93.818ZM93.818 41.138H100.249V34.513H93.818ZM109.273 27.754H115.705V24.249H115.828C117.945 26.862 120.721 28.168 124.154 28.168 126.806 28.168 129.233 27.201 131.433 25.268 133.612 23.314 134.753 20.445 134.856 16.664V-5.324H128.425V14.395C128.425 16.714 127.828 18.479 126.634 19.692 125.461 20.926 123.948 21.543 122.095 21.543 120.243 21.543 118.719 20.926 117.526 19.692 116.311 18.479 115.704 16.714 115.704 14.395V-5.324H109.273ZM142.733 11.247C142.733 14.737 143.011 17.419 143.567 19.292 144.143 21.122 145.027 22.665 146.221 23.92 147.106 25.019 148.341 26.002 149.925 26.869 151.489 27.693 153.496 28.126 155.944 28.168 158.475 28.125 160.523 27.69 162.087 26.862 163.63 25.99 164.824 25.002 165.668 23.898 166.939 22.644 167.842 21.104 168.375 19.277 168.888 17.408 169.145 14.731 169.145 11.247 169.145 7.763 168.887 5.107 168.373 3.28 167.839 1.453 166.933-.129 165.658-1.468 165.246-1.957 164.742-2.435 164.146-2.902 163.611-3.433 162.922-3.89 162.079-4.272 160.515-5.186 158.469-5.663 155.939-5.706 153.491-5.663 151.485-5.186 149.922-4.272 148.338-3.444 147.104-2.509 146.219-1.468 145.026-.129 144.142 1.453 143.566 3.28 143.01 5.107 142.733 7.763 142.733 11.247" fill="#231f20"/>
</g>
<path transform="matrix(4.1666667,0,0,-4.1666667,1664.3399,1254.0847)" stroke-width="7.835" stroke-linecap="butt" stroke-miterlimit="4" stroke-linejoin="miter" fill="none" stroke="#d71920" d="M0 0H130.444"/>
<g clip-path="url(#clip_2)">
<path transform="matrix(4.1666667,0,0,-4.1666667,62.499998,87.50195)" stroke-width="1.25" stroke-linecap="butt" stroke-miterlimit="10" stroke-linejoin="miter" fill="none" stroke="#ffffff" d="M0 0H-15M853.89 0H868.89M0-595.276H-15M853.89-595.276H868.89M6 6V21M6-601.276V-616.276M847.89 6V21M847.89-601.276V-616.276"/>
<path transform="matrix(4.1666667,0,0,-4.1666667,62.499998,87.50195)" stroke-width=".25" stroke-linecap="butt" stroke-miterlimit="10" stroke-linejoin="miter" fill="none" stroke="#000000" d="M0 0H-15M853.89 0H868.89M0-595.276H-15M853.89-595.276H868.89M6 6V21M6-601.276V-616.276M847.89 6V21M847.89-601.276V-616.276"/>
<path transform="matrix(4.1666667,0,0,-4.1666667,75,87.50195)" stroke-width="1.25" stroke-linecap="butt" stroke-miterlimit="10" stroke-linejoin="miter" fill="none" stroke="#ffffff" d="M0 0H-18M847.89 0H865.89M0-595.276H-18M847.89-595.276H865.89M3 3V21M3-598.276V-616.276M844.89 3V21M844.89-598.276V-616.276"/>
<path transform="matrix(4.1666667,0,0,-4.1666667,75,87.50195)" stroke-width=".25" stroke-linecap="butt" stroke-miterlimit="10" stroke-linejoin="miter" fill="none" stroke="#000000" d="M0 0H-18M847.89 0H865.89M0-595.276H-18M847.89-595.276H865.89M3 3V21M3-598.276V-616.276M844.89 3V21M844.89-598.276V-616.276"/>
<path transform="matrix(4.1666667,0,0,-4.1666667,1862.2703,31.251954)" stroke-width="1.25" stroke-linecap="butt" stroke-miterlimit="10" stroke-linejoin="miter" fill="none" stroke="#ffffff" d="M0 0C0-2.761-2.239-5-5-5-7.761-5-10-2.761-10 0-10 2.761-7.761 5-5 5-2.239 5 0 2.761 0 0Z"/>
<path transform="matrix(4.1666667,0,0,-4.1666667,1816.437,31.251954)" stroke-width="1.25" stroke-linecap="butt" stroke-miterlimit="10" stroke-linejoin="miter" fill="none" stroke="#ffffff" d="M0 0H12"/>
<path transform="matrix(4.1666667,0,0,-4.1666667,1841.437,6.251953)" stroke-width="1.25" stroke-linecap="butt" stroke-miterlimit="10" stroke-linejoin="miter" fill="none" stroke="#ffffff" d="M0 0V-12"/>
<path transform="matrix(4.1666667,0,0,-4.1666667,1853.937,31.251954)" stroke-width="1.25" stroke-linecap="butt" stroke-miterlimit="10" stroke-linejoin="miter" fill="none" stroke="#ffffff" d="M0 0C0-1.657-1.343-3-3-3-4.657-3-6-1.657-6 0-6 1.657-4.657 3-3 3-1.343 3 0 1.657 0 0Z"/>
<path transform="matrix(4.1666667,0,0,-4.1666667,1862.2703,31.251954)" stroke-width=".25" stroke-linecap="butt" stroke-miterlimit="10" stroke-linejoin="miter" fill="none" stroke="#000000" d="M0 0C0-2.761-2.239-5-5-5-7.761-5-10-2.761-10 0-10 2.761-7.761 5-5 5-2.239 5 0 2.761 0 0Z"/>
<path transform="matrix(4.1666667,0,0,-4.1666667,1816.437,31.251954)" stroke-width=".25" stroke-linecap="butt" stroke-miterlimit="10" stroke-linejoin="miter" fill="none" stroke="#000000" d="M0 0H12"/>
<path transform="matrix(4.1666667,0,0,-4.1666667,1841.437,6.251953)" stroke-width=".25" stroke-linecap="butt" stroke-miterlimit="10" stroke-linejoin="miter" fill="none" stroke="#000000" d="M0 0V-12"/>
<path transform="matrix(4.1666667,0,0,-4.1666667,1853.937,31.251954)" d="M0 0C0-1.657-1.343-3-3-3-4.657-3-6-1.657-6 0-6 1.657-4.657 3-3 3-1.343 3 0 1.657 0 0"/>
<path transform="matrix(4.1666667,0,0,-4.1666667,1828.937,31.251954)" stroke-width=".25" stroke-linecap="butt" stroke-miterlimit="10" stroke-linejoin="miter" fill="none" stroke="#ffffff" d="M0 0H6"/>
<path transform="matrix(4.1666667,0,0,-4.1666667,1841.437,18.751954)" stroke-width=".25" stroke-linecap="butt" stroke-miterlimit="10" stroke-linejoin="miter" fill="none" stroke="#ffffff" d="M0 0V-6"/>
<path transform="matrix(4.1666667,0,0,-4.1666667,1862.2703,2624.0667)" stroke-width="1.25" stroke-linecap="butt" stroke-miterlimit="10" stroke-linejoin="miter" fill="none" stroke="#ffffff" d="M0 0C0-2.761-2.239-5-5-5-7.761-5-10-2.761-10 0-10 2.761-7.761 5-5 5-2.239 5 0 2.761 0 0Z"/>
<path transform="matrix(4.1666667,0,0,-4.1666667,1816.437,2624.0667)" stroke-width="1.25" stroke-linecap="butt" stroke-miterlimit="10" stroke-linejoin="miter" fill="none" stroke="#ffffff" d="M0 0H12"/>
<path transform="matrix(4.1666667,0,0,-4.1666667,1841.437,2599.0667)" stroke-width="1.25" stroke-linecap="butt" stroke-miterlimit="10" stroke-linejoin="miter" fill="none" stroke="#ffffff" d="M0 0V-12"/>
<path transform="matrix(4.1666667,0,0,-4.1666667,1853.937,2624.0667)" stroke-width="1.25" stroke-linecap="butt" stroke-miterlimit="10" stroke-linejoin="miter" fill="none" stroke="#ffffff" d="M0 0C0-1.657-1.343-3-3-3-4.657-3-6-1.657-6 0-6 1.657-4.657 3-3 3-1.343 3 0 1.657 0 0Z"/>
<path transform="matrix(4.1666667,0,0,-4.1666667,1862.2703,2624.0667)" stroke-width=".25" stroke-linecap="butt" stroke-miterlimit="10" stroke-linejoin="miter" fill="none" stroke="#000000" d="M0 0C0-2.761-2.239-5-5-5-7.761-5-10-2.761-10 0-10 2.761-7.761 5-5 5-2.239 5 0 2.761 0 0Z"/>
<path transform="matrix(4.1666667,0,0,-4.1666667,1816.437,2624.0667)" stroke-width=".25" stroke-linecap="butt" stroke-miterlimit="10" stroke-linejoin="miter" fill="none" stroke="#000000" d="M0 0H12"/>
<path transform="matrix(4.1666667,0,0,-4.1666667,1841.437,2599.0667)" stroke-width=".25" stroke-linecap="butt" stroke-miterlimit="10" stroke-linejoin="miter" fill="none" stroke="#000000" d="M0 0V-12"/>
<path transform="matrix(4.1666667,0,0,-4.1666667,1853.937,2624.0667)" d="M0 0C0-1.657-1.343-3-3-3-4.657-3-6-1.657-6 0-6 1.657-4.657 3-3 3-1.343 3 0 1.657 0 0"/>
<path transform="matrix(4.1666667,0,0,-4.1666667,1828.937,2624.0667)" stroke-width=".25" stroke-linecap="butt" stroke-miterlimit="10" stroke-linejoin="miter" fill="none" stroke="#ffffff" d="M0 0H6"/>
<path transform="matrix(4.1666667,0,0,-4.1666667,1841.437,2611.5667)" stroke-width=".25" stroke-linecap="butt" stroke-miterlimit="10" stroke-linejoin="miter" fill="none" stroke="#ffffff" d="M0 0V-6"/>
<path transform="matrix(4.1666667,0,0,-4.1666667,52.083333,1327.6593)" stroke-width="1.25" stroke-linecap="butt" stroke-miterlimit="10" stroke-linejoin="miter" fill="none" stroke="#ffffff" d="M0 0C0-2.761-2.239-5-5-5-7.761-5-10-2.761-10 0-10 2.761-7.761 5-5 5-2.239 5 0 2.761 0 0Z"/>
<path transform="matrix(4.1666667,0,0,-4.1666667,6.25,1327.6593)" stroke-width="1.25" stroke-linecap="butt" stroke-miterlimit="10" stroke-linejoin="miter" fill="none" stroke="#ffffff" d="M0 0H12"/>
<path transform="matrix(4.1666667,0,0,-4.1666667,31.249999,1302.6593)" stroke-width="1.25" stroke-linecap="butt" stroke-miterlimit="10" stroke-linejoin="miter" fill="none" stroke="#ffffff" d="M0 0V-12"/>
<path transform="matrix(4.1666667,0,0,-4.1666667,43.75,1327.6593)" stroke-width="1.25" stroke-linecap="butt" stroke-miterlimit="10" stroke-linejoin="miter" fill="none" stroke="#ffffff" d="M0 0C0-1.657-1.343-3-3-3-4.657-3-6-1.657-6 0-6 1.657-4.657 3-3 3-1.343 3 0 1.657 0 0Z"/>
<path transform="matrix(4.1666667,0,0,-4.1666667,52.083333,1327.6593)" stroke-width=".25" stroke-linecap="butt" stroke-miterlimit="10" stroke-linejoin="miter" fill="none" stroke="#000000" d="M0 0C0-2.761-2.239-5-5-5-7.761-5-10-2.761-10 0-10 2.761-7.761 5-5 5-2.239 5 0 2.761 0 0Z"/>
<path transform="matrix(4.1666667,0,0,-4.1666667,6.25,1327.6593)" stroke-width=".25" stroke-linecap="butt" stroke-miterlimit="10" stroke-linejoin="miter" fill="none" stroke="#000000" d="M0 0H12"/>
<path transform="matrix(4.1666667,0,0,-4.1666667,31.249999,1302.6593)" stroke-width=".25" stroke-linecap="butt" stroke-miterlimit="10" stroke-linejoin="miter" fill="none" stroke="#000000" d="M0 0V-12"/>
<path transform="matrix(4.1666667,0,0,-4.1666667,43.75,1327.6593)" d="M0 0C0-1.657-1.343-3-3-3-4.657-3-6-1.657-6 0-6 1.657-4.657 3-3 3-1.343 3 0 1.657 0 0"/>
<path transform="matrix(4.1666667,0,0,-4.1666667,18.75,1327.6593)" stroke-width=".25" stroke-linecap="butt" stroke-miterlimit="10" stroke-linejoin="miter" fill="none" stroke="#ffffff" d="M0 0H6"/>
<path transform="matrix(4.1666667,0,0,-4.1666667,31.249999,1315.1593)" stroke-width=".25" stroke-linecap="butt" stroke-miterlimit="10" stroke-linejoin="miter" fill="none" stroke="#ffffff" d="M0 0V-6"/>
<path transform="matrix(4.1666667,0,0,-4.1666667,3672.4573,1327.6593)" stroke-width="1.25" stroke-linecap="butt" stroke-miterlimit="10" stroke-linejoin="miter" fill="none" stroke="#ffffff" d="M0 0C0-2.761-2.239-5-5-5-7.761-5-10-2.761-10 0-10 2.761-7.761 5-5 5-2.239 5 0 2.761 0 0Z"/>
<path transform="matrix(4.1666667,0,0,-4.1666667,3626.624,1327.6593)" stroke-width="1.25" stroke-linecap="butt" stroke-miterlimit="10" stroke-linejoin="miter" fill="none" stroke="#ffffff" d="M0 0H12"/>
<path transform="matrix(4.1666667,0,0,-4.1666667,3651.624,1302.6593)" stroke-width="1.25" stroke-linecap="butt" stroke-miterlimit="10" stroke-linejoin="miter" fill="none" stroke="#ffffff" d="M0 0V-12"/>
<path transform="matrix(4.1666667,0,0,-4.1666667,3664.124,1327.6593)" stroke-width="1.25" stroke-linecap="butt" stroke-miterlimit="10" stroke-linejoin="miter" fill="none" stroke="#ffffff" d="M0 0C0-1.657-1.343-3-3-3-4.657-3-6-1.657-6 0-6 1.657-4.657 3-3 3-1.343 3 0 1.657 0 0Z"/>
<path transform="matrix(4.1666667,0,0,-4.1666667,3672.4573,1327.6593)" stroke-width=".25" stroke-linecap="butt" stroke-miterlimit="10" stroke-linejoin="miter" fill="none" stroke="#000000" d="M0 0C0-2.761-2.239-5-5-5-7.761-5-10-2.761-10 0-10 2.761-7.761 5-5 5-2.239 5 0 2.761 0 0Z"/>
<path transform="matrix(4.1666667,0,0,-4.1666667,3626.624,1327.6593)" stroke-width=".25" stroke-linecap="butt" stroke-miterlimit="10" stroke-linejoin="miter" fill="none" stroke="#000000" d="M0 0H12"/>
<path transform="matrix(4.1666667,0,0,-4.1666667,3651.624,1302.6593)" stroke-width=".25" stroke-linecap="butt" stroke-miterlimit="10" stroke-linejoin="miter" fill="none" stroke="#000000" d="M0 0V-12"/>
<path transform="matrix(4.1666667,0,0,-4.1666667,3664.124,1327.6593)" d="M0 0C0-1.657-1.343-3-3-3-4.657-3-6-1.657-6 0-6 1.657-4.657 3-3 3-1.343 3 0 1.657 0 0"/>
<path transform="matrix(4.1666667,0,0,-4.1666667,3639.124,1327.6593)" stroke-width=".25" stroke-linecap="butt" stroke-miterlimit="10" stroke-linejoin="miter" fill="none" stroke="#ffffff" d="M0 0H6"/>
<path transform="matrix(4.1666667,0,0,-4.1666667,3651.624,1315.1593)" stroke-width=".25" stroke-linecap="butt" stroke-miterlimit="10" stroke-linejoin="miter" fill="none" stroke="#ffffff" d="M0 0V-6"/>
</g>
<path transform="matrix(4.1666667,0,0,-4.1666667,0,2655.3167)" d="M27.5 636.776H41.5V622.776H27.5Z"/>
<g clip-path="url(#clip_3)">
<path transform="matrix(4.1666667,0,0,-4.1666667,114.58333,2.085205)" stroke-width="1" stroke-linecap="butt" stroke-miterlimit="10" stroke-linejoin="miter" fill="none" stroke="#6c6c6c" d="M0 0H14V-14H0Z"/>
</g>
<path transform="matrix(4.1666667,0,0,-4.1666667,0,2655.3167)" d="M41.5 636.776H55.5V622.776H41.5Z" fill="#222222"/>
<g clip-path="url(#clip_4)">
<path transform="matrix(4.1666667,0,0,-4.1666667,172.91666,2.085205)" stroke-width="1" stroke-linecap="butt" stroke-miterlimit="10" stroke-linejoin="miter" fill="none" stroke="#6c6c6c" d="M0 0H14V-14H0Z"/>
</g>
<path transform="matrix(4.1666667,0,0,-4.1666667,0,2655.3167)" d="M55.5 636.776H69.5V622.776H55.5Z" fill="#424242"/>
<g clip-path="url(#clip_5)">
<path transform="matrix(4.1666667,0,0,-4.1666667,231.24999,2.085205)" stroke-width="1" stroke-linecap="butt" stroke-miterlimit="10" stroke-linejoin="miter" fill="none" stroke="#6c6c6c" d="M0 0H14V-14H0Z"/>
</g>
<path transform="matrix(4.1666667,0,0,-4.1666667,0,2655.3167)" d="M69.5 636.776H83.5V622.776H69.5Z" fill="#5f5f5f"/>
<g clip-path="url(#clip_6)">
<path transform="matrix(4.1666667,0,0,-4.1666667,289.5833,2.085205)" stroke-width="1" stroke-linecap="butt" stroke-miterlimit="10" stroke-linejoin="miter" fill="none" stroke="#6c6c6c" d="M0 0H14V-14H0Z"/>
</g>
<path transform="matrix(4.1666667,0,0,-4.1666667,0,2655.3167)" d="M83.5 636.776H97.5V622.776H83.5Z" fill="#797979"/>
<g clip-path="url(#clip_7)">
<path transform="matrix(4.1666667,0,0,-4.1666667,347.91667,2.085205)" stroke-width="1" stroke-linecap="butt" stroke-miterlimit="10" stroke-linejoin="miter" fill="none" stroke="#6c6c6c" d="M0 0H14V-14H0Z"/>
</g>
<path transform="matrix(4.1666667,0,0,-4.1666667,0,2655.3167)" d="M97.5 636.776H111.5V622.776H97.5Z" fill="#929292"/>
<g clip-path="url(#clip_8)">
<path transform="matrix(4.1666667,0,0,-4.1666667,406.24998,2.085205)" stroke-width="1" stroke-linecap="butt" stroke-miterlimit="10" stroke-linejoin="miter" fill="none" stroke="#6c6c6c" d="M0 0H14V-14H0Z"/>
</g>
<path transform="matrix(4.1666667,0,0,-4.1666667,0,2655.3167)" d="M111.5 636.776H125.5V622.776H111.5Z" fill="#a9a9a9"/>
<g clip-path="url(#clip_9)">
<path transform="matrix(4.1666667,0,0,-4.1666667,464.5833,2.085205)" stroke-width="1" stroke-linecap="butt" stroke-miterlimit="10" stroke-linejoin="miter" fill="none" stroke="#6c6c6c" d="M0 0H14V-14H0Z"/>
</g>
<path transform="matrix(4.1666667,0,0,-4.1666667,0,2655.3167)" d="M125.5 636.776H139.5V622.776H125.5Z" fill="#c0c0c0"/>
<g clip-path="url(#clip_10)">
<path transform="matrix(4.1666667,0,0,-4.1666667,522.9166,2.085205)" stroke-width="1" stroke-linecap="butt" stroke-miterlimit="10" stroke-linejoin="miter" fill="none" stroke="#6c6c6c" d="M0 0H14V-14H0Z"/>
</g>
<path transform="matrix(4.1666667,0,0,-4.1666667,0,2655.3167)" d="M139.5 636.776H153.5V622.776H139.5Z" fill="#d5d6d5"/>
<g clip-path="url(#clip_11)">
<path transform="matrix(4.1666667,0,0,-4.1666667,581.25,2.085205)" stroke-width="1" stroke-linecap="butt" stroke-miterlimit="10" stroke-linejoin="miter" fill="none" stroke="#6c6c6c" d="M0 0H14V-14H0Z"/>
</g>
<path transform="matrix(4.1666667,0,0,-4.1666667,0,2655.3167)" d="M153.5 636.776H167.5V622.776H153.5Z" fill="#ebebeb"/>
<g clip-path="url(#clip_12)">
<path transform="matrix(4.1666667,0,0,-4.1666667,639.5833,2.085205)" stroke-width="1" stroke-linecap="butt" stroke-miterlimit="10" stroke-linejoin="miter" fill="none" stroke="#6c6c6c" d="M0 0H14V-14H0Z"/>
</g>
<path transform="matrix(4.1666667,0,0,-4.1666667,0,2655.3167)" d="M167.5 636.776H181.5V622.776H167.5Z" fill="#ffffff"/>
<g clip-path="url(#clip_13)">
<path transform="matrix(4.1666667,0,0,-4.1666667,697.9166,2.085205)" stroke-width="1" stroke-linecap="butt" stroke-miterlimit="10" stroke-linejoin="miter" fill="none" stroke="#6c6c6c" d="M0 0H14V-14H0Z"/>
</g>
<path transform="matrix(4.1666667,0,0,-4.1666667,0,2655.3167)" d="M702.39 636.776H716.39V622.776H702.39Z" fill="#fff200"/>
<g clip-path="url(#clip_14)">
<path transform="matrix(4.1666667,0,0,-4.1666667,2926.624,2.085205)" stroke-width="1" stroke-linecap="butt" stroke-miterlimit="10" stroke-linejoin="miter" fill="none" stroke="#6c6c6c" d="M0 0H14V-14H0Z"/>
</g>
<path transform="matrix(4.1666667,0,0,-4.1666667,0,2655.3167)" d="M716.39 636.776H730.39V622.776H716.39Z" fill="#ec008c"/>
<g clip-path="url(#clip_15)">
<path transform="matrix(4.1666667,0,0,-4.1666667,2984.9573,2.085205)" stroke-width="1" stroke-linecap="butt" stroke-miterlimit="10" stroke-linejoin="miter" fill="none" stroke="#6c6c6c" d="M0 0H14V-14H0Z"/>
</g>
<path transform="matrix(4.1666667,0,0,-4.1666667,0,2655.3167)" d="M730.39 636.776H744.39V622.776H730.39Z" fill="#00aeef"/>
<g clip-path="url(#clip_16)">
<path transform="matrix(4.1666667,0,0,-4.1666667,3043.2906,2.085205)" stroke-width="1" stroke-linecap="butt" stroke-miterlimit="10" stroke-linejoin="miter" fill="none" stroke="#6c6c6c" d="M0 0H14V-14H0Z"/>
</g>
<path transform="matrix(4.1666667,0,0,-4.1666667,0,2655.3167)" d="M744.39 636.776H758.39V622.776H744.39Z" fill="#2e3092"/>
<g clip-path="url(#clip_17)">
<path transform="matrix(4.1666667,0,0,-4.1666667,3101.624,2.085205)" stroke-width="1" stroke-linecap="butt" stroke-miterlimit="10" stroke-linejoin="miter" fill="none" stroke="#6c6c6c" d="M0 0H14V-14H0Z"/>
</g>
<path transform="matrix(4.1666667,0,0,-4.1666667,0,2655.3167)" d="M758.39 636.776H772.39V622.776H758.39Z" fill="#00a650"/>
<g clip-path="url(#clip_18)">
<path transform="matrix(4.1666667,0,0,-4.1666667,3159.9573,2.085205)" stroke-width="1" stroke-linecap="butt" stroke-miterlimit="10" stroke-linejoin="miter" fill="none" stroke="#6c6c6c" d="M0 0H14V-14H0Z"/>
</g>
<path transform="matrix(4.1666667,0,0,-4.1666667,0,2655.3167)" d="M772.39 636.776H786.39V622.776H772.39Z" fill="#ed1c24"/>
<g clip-path="url(#clip_19)">
<path transform="matrix(4.1666667,0,0,-4.1666667,3218.2906,2.085205)" stroke-width="1" stroke-linecap="butt" stroke-miterlimit="10" stroke-linejoin="miter" fill="none" stroke="#6c6c6c" d="M0 0H14V-14H0Z"/>
</g>
<path transform="matrix(4.1666667,0,0,-4.1666667,0,2655.3167)" d="M786.39 636.776H800.39V622.776H786.39Z" fill="#231f20"/>
<g clip-path="url(#clip_20)">
<path transform="matrix(4.1666667,0,0,-4.1666667,3276.624,2.085205)" stroke-width="1" stroke-linecap="butt" stroke-miterlimit="10" stroke-linejoin="miter" fill="none" stroke="#6c6c6c" d="M0 0H14V-14H0Z"/>
</g>
<path transform="matrix(4.1666667,0,0,-4.1666667,0,2655.3167)" d="M800.39 636.776H814.39V622.776H800.39Z" fill="#fff799"/>
<g clip-path="url(#clip_21)">
<path transform="matrix(4.1666667,0,0,-4.1666667,3334.9573,2.085205)" stroke-width="1" stroke-linecap="butt" stroke-miterlimit="10" stroke-linejoin="miter" fill="none" stroke="#6c6c6c" d="M0 0H14V-14H0Z"/>
</g>
<path transform="matrix(4.1666667,0,0,-4.1666667,0,2655.3167)" d="M814.39 636.776H828.39V622.776H814.39Z" fill="#f49ac1"/>
<g clip-path="url(#clip_22)">
<path transform="matrix(4.1666667,0,0,-4.1666667,3393.2906,2.085205)" stroke-width="1" stroke-linecap="butt" stroke-miterlimit="10" stroke-linejoin="miter" fill="none" stroke="#6c6c6c" d="M0 0H14V-14H0Z"/>
</g>
<path transform="matrix(4.1666667,0,0,-4.1666667,0,2655.3167)" d="M828.39 636.776H842.39V622.776H828.39Z" fill="#6dcff6"/>
<g clip-path="url(#clip_23)">
<path transform="matrix(4.1666667,0,0,-4.1666667,3451.624,2.085205)" stroke-width="1" stroke-linecap="butt" stroke-miterlimit="10" stroke-linejoin="miter" fill="none" stroke="#6c6c6c" d="M0 0H14V-14H0Z"/>
</g>
<path transform="matrix(4.1666667,0,0,-4.1666667,0,2655.3167)" d="M842.39 636.776H856.39V622.776H842.39Z" fill="#939598"/>
<g clip-path="url(#clip_24)">
<path transform="matrix(4.1666667,0,0,-4.1666667,3509.9573,2.085205)" stroke-width="1" stroke-linecap="butt" stroke-miterlimit="10" stroke-linejoin="miter" fill="none" stroke="#6c6c6c" d="M0 0H14V-14H0Z"/>
</g>
<path transform="matrix(4.1666667,0,0,-4.1666667,131.07083,2630.3167)" stroke-width=".4" stroke-linecap="butt" stroke-miterlimit="10" stroke-linejoin="miter" fill="none" stroke="#ffffff" d="M0 0H2.742V.513H.583V4.304H0V0Z"/>
<g clip-path="url(#clip_25)">
<path transform="matrix(4.1666667,0,0,-4.1666667,149.82707,2628.8885)" stroke-width=".4" stroke-linecap="butt" stroke-miterlimit="10" stroke-linejoin="miter" fill="none" stroke="#ffffff" d="M0 0C-.315 0-.545 .111-.689 .334-.834 .556-.907 .834-.907 1.168-.907 1.515-.834 1.811-.689 2.057-.545 2.303-.313 2.426 .006 2.426 .365 2.426 .618 2.281 .765 1.993 .857 1.809 .904 1.571 .904 1.279 .904 .955 .84 .661 .711 .396 .583 .132 .346 0 0 0ZM.02 2.886C-.428 2.886-.785 2.73-1.05 2.417-1.316 2.105-1.449 1.686-1.449 1.159-1.449 .667-1.323 .275-1.071-.017-.818-.308-.478-.454-.049-.454 .464-.454 .844-.289 1.088 .041 1.332 .37 1.455 .788 1.455 1.293 1.455 1.816 1.316 2.212 1.039 2.482 .761 2.751 .422 2.886 .02 2.886Z"/>
<path transform="matrix(4.1666667,0,0,-4.1666667,163.17833,2617.0108)" stroke-width=".4" stroke-linecap="butt" stroke-miterlimit="10" stroke-linejoin="miter" fill="none" stroke="#ffffff" d="M0 0C-.362 0-.671-.148-.927-.442-1.182-.737-1.31-1.147-1.31-1.673-1.31-2.229-1.183-2.628-.929-2.87-.676-3.111-.379-3.231-.041-3.231 .202-3.231 .398-3.192 .546-3.114 .694-3.036 .82-2.917 .925-2.757 .931-3.189 .897-3.488 .823-3.656 .699-3.941 .436-4.084 .033-4.084-.221-4.084-.408-4.025-.526-3.908-.602-3.832-.652-3.724-.677-3.583H-1.214C-1.186-3.905-1.058-4.142-.828-4.293-.598-4.445-.315-4.521 .022-4.521 .627-4.521 1.039-4.308 1.257-3.882 1.373-3.651 1.432-3.337 1.432-2.938V-.085H.946V-.48C.842-.35 .741-.25 .642-.182 .459-.061 .245 0 0 0ZM.946-1.611C.946-1.869 .903-2.095 .817-2.288 .664-2.63 .399-2.801 .022-2.801-.219-2.801-.411-2.708-.554-2.524-.697-2.339-.768-2.07-.768-1.717-.768-1.416-.732-1.173-.66-.987-.524-.64-.272-.466 .097-.466 .344-.466 .547-.56 .707-.747 .866-.935 .946-1.223 .946-1.611Z"/>
<path transform="matrix(4.1666667,0,0,-4.1666667,177.63459,2628.8885)" stroke-width=".4" stroke-linecap="butt" stroke-miterlimit="10" stroke-linejoin="miter" fill="none" stroke="#ffffff" d="M0 0C-.315 0-.545 .111-.689 .334-.834 .556-.907 .834-.907 1.168-.907 1.515-.834 1.811-.689 2.057-.545 2.303-.313 2.426 .006 2.426 .365 2.426 .618 2.281 .765 1.993 .857 1.809 .904 1.571 .904 1.279 .904 .955 .84 .661 .711 .396 .583 .132 .346 0 0 0ZM.02 2.886C-.428 2.886-.785 2.73-1.05 2.417-1.316 2.105-1.449 1.686-1.449 1.159-1.449 .667-1.323 .275-1.071-.017-.818-.308-.478-.454-.049-.454 .464-.454 .844-.289 1.088 .041 1.332 .37 1.455 .788 1.455 1.293 1.455 1.816 1.316 2.212 1.039 2.482 .761 2.751 .422 2.886 .02 2.886Z"/>
<path transform="matrix(4.1666667,0,0,-4.1666667,196.1954,2628.2418)" stroke-width=".4" stroke-linecap="butt" stroke-miterlimit="10" stroke-linejoin="miter" fill="none" stroke="#ffffff" d="M0 0V3.305H1.011C1.471 3.305 1.805 3.157 2.012 2.862 2.22 2.567 2.323 2.153 2.323 1.62 2.323 1.481 2.309 1.331 2.28 1.169 2.231 .897 2.149 .675 2.037 .501 1.895 .284 1.714 .138 1.492 .062 1.368 .021 1.21 0 1.017 0H0ZM-.589-.498H1.126C1.854-.498 2.368-.172 2.666 .48 2.836 .85 2.921 1.263 2.921 1.72 2.921 2.312 2.777 2.797 2.49 3.176 2.168 3.596 1.715 3.806 1.131 3.806H-.589V-.498Z"/>
<path transform="matrix(4.1666667,0,0,-4.1666667,216.78749,2616.95)" stroke-width=".4" stroke-linecap="butt" stroke-miterlimit="10" stroke-linejoin="miter" fill="none" stroke="#ffffff" d="M0 0C-.439 0-.794-.157-1.066-.472-1.337-.786-1.473-1.195-1.473-1.699-1.473-2.211-1.338-2.609-1.069-2.893-.799-3.177-.47-3.319-.082-3.319 .077-3.319 .22-3.304 .346-3.272 .58-3.218 .777-3.112 .936-2.956 1.031-2.866 1.117-2.751 1.194-2.609 1.271-2.467 1.317-2.339 1.33-2.224H.812C.774-2.363 .709-2.486 .618-2.592 .455-2.774 .237-2.865-.036-2.865-.328-2.865-.545-2.769-.684-2.576-.824-2.383-.898-2.127-.908-1.808H1.374C1.374-1.491 1.359-1.261 1.328-1.116 1.293-.905 1.223-.721 1.118-.562 1.009-.397 .851-.261 .643-.157 .436-.052 .221 0 0 0ZM-.896-1.389C-.887-1.119-.8-.897-.638-.722-.475-.547-.274-.46-.033-.46 .302-.46 .541-.587 .684-.841 .762-.978 .811-1.16 .832-1.389H-.896Z"/>
<path transform="matrix(4.1666667,0,0,-4.1666667,233.04875,2611.8963)" stroke-width=".4" stroke-linecap="butt" stroke-miterlimit="10" stroke-linejoin="miter" fill="none" stroke="#ffffff" d="M0 0C-.631 0-1.126-.221-1.485-.663-1.818-1.069-1.983-1.59-1.983-2.225-1.983-3.062-1.762-3.68-1.32-4.081-.984-4.384-.569-4.535-.075-4.535 .498-4.535 .954-4.351 1.292-3.981 1.574-3.675 1.74-3.295 1.79-2.842H1.222C1.164-3.125 1.077-3.354 .96-3.527 .739-3.857 .418-4.022-.004-4.022-.463-4.022-.808-3.866-1.039-3.552-1.27-3.238-1.386-2.829-1.386-2.325-1.386-1.709-1.258-1.252-1.002-.954-.746-.656-.41-.507 .007-.507 .348-.507 .613-.588 .802-.75 .991-.912 1.117-1.132 1.181-1.409H1.749C1.716-1.044 1.551-.718 1.254-.431 .956-.144 .539 0 0 0Z"/>
<path transform="matrix(4.1666667,0,0,-4.1666667,245.03583,2626.8426)" stroke-width=".4" stroke-linecap="butt" stroke-miterlimit="10" stroke-linejoin="miter" fill="none" stroke="#ffffff" d="M0 0C0 .201 .082 .347 .245 .438 .341 .493 .485 .533 .676 .558L.994 .599C1.092 .611 1.191 .631 1.292 .658 1.394 .685 1.477 .72 1.541 .761V.337C1.541 .013 1.395-.22 1.102-.362 .928-.448 .748-.491 .562-.491 .41-.491 .278-.447 .167-.359 .056-.272 0-.152 0 0ZM.437 .96C.142 .923-.097 .824-.278 .664-.46 .504-.551 .279-.551-.012-.551-.277-.458-.498-.274-.674-.089-.851 .148-.939 .439-.939 .682-.939 .903-.888 1.104-.784 1.306-.681 1.46-.558 1.567-.418 1.585-.543 1.615-.64 1.658-.708 1.74-.837 1.872-.901 2.054-.901 2.128-.901 2.187-.898 2.229-.892 2.272-.887 2.335-.872 2.417-.848V-.459C2.384-.465 2.353-.469 2.323-.472 2.294-.475 2.268-.476 2.244-.476 2.172-.476 2.124-.46 2.102-.427 2.08-.394 2.068-.35 2.068-.295V1.513C2.068 1.81 1.954 2.029 1.726 2.169 1.496 2.31 1.196 2.38 .828 2.38 .51 2.38 .23 2.304-.011 2.152-.252 2.001-.377 1.731-.387 1.343H.105C.125 1.506 .167 1.629 .231 1.711 .346 1.86 .541 1.935 .816 1.935 1.054 1.935 1.236 1.894 1.364 1.813 1.492 1.731 1.556 1.6 1.556 1.42 1.556 1.332 1.544 1.264 1.521 1.217 1.48 1.131 1.398 1.081 1.277 1.065L.437 .96Z"/>
<path transform="matrix(4.1666667,0,0,-4.1666667,257.25498,2630.3167)" stroke-width=".4" stroke-linecap="butt" stroke-miterlimit="10" stroke-linejoin="miter" fill="none" stroke="#ffffff" d="M0 0H.527V1.664C.527 2.068 .609 2.348 .772 2.502 .935 2.656 1.116 2.733 1.315 2.733 1.534 2.733 1.684 2.66 1.764 2.514 1.814 2.416 1.84 2.261 1.84 2.048V0H2.376V1.825C2.376 2.149 2.451 2.381 2.6 2.52 2.75 2.658 2.928 2.728 3.135 2.728 3.285 2.728 3.413 2.688 3.517 2.61 3.622 2.532 3.674 2.389 3.674 2.18V0H4.222V2.089C4.222 2.366 4.181 2.587 4.099 2.751 3.946 3.056 3.659 3.208 3.237 3.208 3.04 3.208 2.862 3.167 2.704 3.086 2.546 3.005 2.408 2.881 2.291 2.713 2.221 2.85 2.143 2.953 2.057 3.023 1.904 3.146 1.703 3.208 1.453 3.208 1.232 3.208 1.035 3.148 .861 3.029 .76 2.959 .646 2.847 .521 2.692V3.138H0V0Z"/>
<path transform="matrix(4.1666667,0,0,-4.1666667,0,2655.3167)" stroke-width=".4" stroke-linecap="butt" stroke-miterlimit="10" stroke-linejoin="miter" fill="none" stroke="#ffffff" d="M66.739 6H67.275V9.123H66.739ZM66.739 9.706H67.275V10.304H66.739Z"/>
<path transform="matrix(4.1666667,0,0,-4.1666667,283.63459,2630.3167)" stroke-width=".4" stroke-linecap="butt" stroke-miterlimit="10" stroke-linejoin="miter" fill="none" stroke="#ffffff" d="M0 0H.527V1.644C.527 1.849 .541 2.006 .567 2.117 .593 2.227 .65 2.334 .738 2.438 .848 2.566 .975 2.652 1.119 2.695 1.199 2.721 1.302 2.733 1.427 2.733 1.673 2.733 1.843 2.636 1.937 2.44 1.993 2.323 2.021 2.169 2.021 1.978V0H2.558V2.013C2.558 2.329 2.515 2.572 2.429 2.742 2.272 3.053 1.972 3.208 1.526 3.208 1.323 3.208 1.139 3.168 .973 3.088 .807 3.008 .649 2.876 .501 2.692V3.138H0V0Z"/>
<path transform="matrix(4.1666667,0,0,-4.1666667,302.68333,2628.8885)" stroke-width=".4" stroke-linecap="butt" stroke-miterlimit="10" stroke-linejoin="miter" fill="none" stroke="#ffffff" d="M0 0C-.315 0-.545 .111-.689 .334-.834 .556-.907 .834-.907 1.168-.907 1.515-.834 1.811-.689 2.057-.545 2.303-.313 2.426 .006 2.426 .365 2.426 .618 2.281 .765 1.993 .857 1.809 .904 1.571 .904 1.279 .904 .955 .84 .661 .711 .396 .583 .132 .346 0 0 0ZM.02 2.886C-.428 2.886-.785 2.73-1.05 2.417-1.316 2.105-1.449 1.686-1.449 1.159-1.449 .667-1.323 .275-1.071-.017-.818-.308-.478-.454-.049-.454 .464-.454 .844-.289 1.088 .041 1.332 .37 1.455 .788 1.455 1.293 1.455 1.816 1.316 2.212 1.039 2.482 .761 2.751 .422 2.886 .02 2.886Z"/>
<path transform="matrix(4.1666667,0,0,-4.1666667,0,2655.3167)" stroke-width=".4" stroke-linecap="butt" stroke-miterlimit="10" stroke-linejoin="miter" fill="none" stroke="#ffffff" d="M74.872 6H75.484V6.639H74.872Z"/>
<path transform="matrix(4.1666667,0,0,-4.1666667,0,2655.3167)" stroke-width=".4" stroke-linecap="butt" stroke-miterlimit="10" stroke-linejoin="miter" fill="none" stroke="#ffffff" d="M76.413 6H76.949008V9.123H76.413ZM76.413 9.706H76.949008V10.304H76.413Z"/>
<path transform="matrix(4.1666667,0,0,-4.1666667,323.94209,2630.3167)" stroke-width=".4" stroke-linecap="butt" stroke-miterlimit="10" stroke-linejoin="miter" fill="none" stroke="#ffffff" d="M0 0H.527V1.644C.527 1.849 .541 2.006 .567 2.117 .593 2.227 .65 2.334 .738 2.438 .848 2.566 .975 2.652 1.119 2.695 1.199 2.721 1.302 2.733 1.427 2.733 1.673 2.733 1.843 2.636 1.937 2.44 1.993 2.323 2.021 2.169 2.021 1.978V0H2.558V2.013C2.558 2.329 2.515 2.572 2.429 2.742 2.272 3.053 1.972 3.208 1.526 3.208 1.323 3.208 1.139 3.168 .973 3.088 .807 3.008 .649 2.876 .501 2.692V3.138H0V0Z"/>
<path transform="matrix(4.1666667,0,0,-4.1666667,339.2375,2623.9324)" stroke-width=".4" stroke-linecap="butt" stroke-miterlimit="10" stroke-linejoin="miter" fill="none" stroke="#ffffff" d="M0 0C0 .394 .082 .693 .246 .896 .41 1.1 .625 1.201 .889 1.201 1.126 1.201 1.325 1.106 1.487 .916 1.648 .725 1.729 .432 1.729 .035 1.729-.357 1.65-.659 1.494-.869 1.337-1.079 1.138-1.184 .895-1.184 .582-1.184 .355-1.07 .213-.844 .071-.617 0-.336 0 0ZM.789 1.661C.357 1.661 .025 1.494-.208 1.159-.44 .824-.557 .428-.557-.029-.557-.518-.429-.909-.174-1.203 .081-1.497 .382-1.644 .73-1.644 .946-1.644 1.138-1.601 1.305-1.515 1.473-1.429 1.618-1.289 1.74-1.096V-1.532H2.215V2.786H1.708V1.201C1.589 1.348 1.483 1.45 1.39 1.509 1.228 1.61 1.028 1.661 .789 1.661Z"/>
<path transform="matrix(4.1666667,0,0,-4.1666667,353.14125,2623.9324)" stroke-width=".4" stroke-linecap="butt" stroke-miterlimit="10" stroke-linejoin="miter" fill="none" stroke="#ffffff" d="M0 0C0 .394 .082 .693 .246 .896 .41 1.1 .625 1.201 .889 1.201 1.126 1.201 1.325 1.106 1.487 .916 1.648 .725 1.729 .432 1.729 .035 1.729-.357 1.65-.659 1.494-.869 1.337-1.079 1.138-1.184 .895-1.184 .582-1.184 .355-1.07 .213-.844 .071-.617 0-.336 0 0ZM.789 1.661C.357 1.661 .025 1.494-.208 1.159-.44 .824-.557 .428-.557-.029-.557-.518-.429-.909-.174-1.203 .081-1.497 .382-1.644 .73-1.644 .946-1.644 1.138-1.601 1.305-1.515 1.473-1.429 1.618-1.289 1.74-1.096V-1.532H2.215V2.786H1.708V1.201C1.589 1.348 1.483 1.45 1.39 1.509 1.228 1.61 1.028 1.661 .789 1.661Z"/>
<path transform="matrix(4.1666667,0,0,-4.1666667,391.38584,2617.9388)" stroke-width=".4" stroke-linecap="butt" stroke-miterlimit="10" stroke-linejoin="miter" fill="none" stroke="#ffffff" d="M0 0V-2.971H.562V1.207H.146C.072 .883-.04 .677-.19 .59-.341 .503-.606 .441-.987 .404V0H0Z"/>
</g>
<use data-text="L" xlink:href="#font_26_47" transform="matrix(25,0,0,-25,129.16666,2630.3167)"/>
<use data-text="o" xlink:href="#font_26_82" transform="matrix(25,0,0,-25,143.06665,2630.3167)"/>
<use data-text="g" xlink:href="#font_26_74" transform="matrix(25,0,0,-25,156.96665,2630.3167)"/>
<use data-text="o" xlink:href="#font_26_82" transform="matrix(25,0,0,-25,170.86664,2630.3167)"/>
<use data-text=" " xlink:href="#font_26_3" transform="matrix(25,0,0,-25,184.76663,2630.3167)"/>
<use data-text="D" xlink:href="#font_26_39" transform="matrix(25,0,0,-25,191.71663,2630.3167)"/>
<use data-text="e" xlink:href="#font_26_72" transform="matrix(25,0,0,-25,209.76663,2630.3167)"/>
<use data-text="C" xlink:href="#font_26_38" transform="matrix(25,0,0,-25,223.66663,2630.3167)"/>
<use data-text="a" xlink:href="#font_26_68" transform="matrix(25,0,0,-25,241.71663,2630.3167)"/>
<use data-text="m" xlink:href="#font_26_80" transform="matrix(25,0,0,-25,255.61663,2630.3167)"/>
<use data-text="i" xlink:href="#font_26_76" transform="matrix(25,0,0,-25,276.44163,2630.3167)"/>
<use data-text="n" xlink:href="#font_26_81" transform="matrix(25,0,0,-25,281.99165,2630.3167)"/>
<use data-text="o" xlink:href="#font_26_82" transform="matrix(25,0,0,-25,295.89164,2630.3167)"/>
<use data-text="." xlink:href="#font_26_17" transform="matrix(25,0,0,-25,309.79164,2630.3167)"/>
<use data-text="i" xlink:href="#font_26_76" transform="matrix(25,0,0,-25,316.7416,2630.3167)"/>
<use data-text="n" xlink:href="#font_26_81" transform="matrix(25,0,0,-25,322.29164,2630.3167)"/>
<use data-text="d" xlink:href="#font_26_71" transform="matrix(25,0,0,-25,336.19163,2630.3167)"/>
<use data-text="d" xlink:href="#font_26_71" transform="matrix(25,0,0,-25,350.0916,2630.3167)"/>
<use data-text=" " xlink:href="#font_26_3" transform="matrix(25,0,0,-25,363.9916,2630.3167)"/>
<use data-text=" " xlink:href="#font_26_3" transform="matrix(25,0,0,-25,370.9416,2630.3167)"/>
<use data-text=" " xlink:href="#font_26_3" transform="matrix(25,0,0,-25,377.8916,2630.3167)"/>
<use data-text="1" xlink:href="#font_26_20" transform="matrix(25,0,0,-25,384.84159,2630.3167)"/>
<g clip-path="url(#clip_27)">
<path transform="matrix(4.1666667,0,0,-4.1666667,3426.8804,2617.9388)" stroke-width=".4" stroke-linecap="butt" stroke-miterlimit="10" stroke-linejoin="miter" fill="none" stroke="#ffffff" d="M0 0V-2.971H.562V1.207H.146C.072 .883-.04 .677-.19 .59-.341 .503-.606 .441-.987 .404V0H0Z"/>
<path transform="matrix(4.1666667,0,0,-4.1666667,3435.1934,2613.1292)" stroke-width=".4" stroke-linecap="butt" stroke-miterlimit="10" stroke-linejoin="miter" fill="none" stroke="#ffffff" d="M0 0V-.53H2.32C2.025-.868 1.744-1.27 1.477-1.734 1.023-2.527 .73-3.324 .598-4.125H1.181C1.271-3.695 1.344-3.384 1.4-3.19 1.488-2.89 1.617-2.557 1.787-2.191 1.959-1.816 2.157-1.467 2.38-1.143 2.604-.818 2.783-.591 2.918-.46V0H0Z"/>
<path transform="matrix(4.1666667,0,0,-4.1666667,3448.188,2630.3167)" stroke-width=".4" stroke-linecap="butt" stroke-miterlimit="10" stroke-linejoin="miter" fill="none" stroke="#ffffff" d="M0 0H.445L1.811 4.304H1.365L0 0Z"/>
<path transform="matrix(4.1666667,0,0,-4.1666667,3456.2264,2626.0809)" stroke-width=".4" stroke-linecap="butt" stroke-miterlimit="10" stroke-linejoin="miter" fill="none" stroke="#ffffff" d="M0 0C0-.324 .106-.594 .319-.809 .532-1.023 .844-1.131 1.254-1.131 1.865-1.131 2.299-.801 2.555-.141 2.709 .255 2.786 .71 2.786 1.223 2.786 1.678 2.722 2.056 2.593 2.359 2.36 2.909 1.938 3.185 1.327 3.185 .874 3.185 .531 3.04 .299 2.751 .066 2.463-.05 2.128-.05 1.748-.05 1.352 .068 1.028 .303 .776 .539 .524 .858 .398 1.263 .398 1.462 .398 1.648 .436 1.821 .511 1.994 .586 2.139 .717 2.256 .902 2.182 .26 2.056-.167 1.878-.376 1.7-.586 1.485-.691 1.233-.691 1.099-.691 .978-.662 .87-.604 .661-.492 .549-.291 .533 0H0ZM1.333 .861C1.042 .861 .83 .942 .697 1.103 .564 1.263 .498 1.48 .498 1.753 .498 2.042 .574 2.273 .725 2.445 .876 2.618 1.081 2.704 1.339 2.704 1.579 2.704 1.777 2.629 1.932 2.477 2.087 2.326 2.165 2.097 2.165 1.789 2.165 1.445 2.079 1.205 1.906 1.068 1.733 .93 1.542 .861 1.333 .861Z"/>
<path transform="matrix(4.1666667,0,0,-4.1666667,3469.0374,2630.3167)" stroke-width=".4" stroke-linecap="butt" stroke-miterlimit="10" stroke-linejoin="miter" fill="none" stroke="#ffffff" d="M0 0H.445L1.811 4.304H1.365L0 0Z"/>
<path transform="matrix(4.1666667,0,0,-4.1666667,3482.4835,2617.9388)" stroke-width=".4" stroke-linecap="butt" stroke-miterlimit="10" stroke-linejoin="miter" fill="none" stroke="#ffffff" d="M0 0V-2.971H.562V1.207H.146C.072 .883-.04 .677-.19 .59-.341 .503-.606 .441-.987 .404V0H0Z"/>
<path transform="matrix(4.1666667,0,0,-4.1666667,3490.796,2613.1292)" stroke-width=".4" stroke-linecap="butt" stroke-miterlimit="10" stroke-linejoin="miter" fill="none" stroke="#ffffff" d="M0 0V-.53H2.32C2.025-.868 1.744-1.27 1.477-1.734 1.023-2.527 .73-3.324 .598-4.125H1.181C1.271-3.695 1.344-3.384 1.4-3.19 1.488-2.89 1.617-2.557 1.787-2.191 1.959-1.816 2.157-1.467 2.38-1.143 2.604-.818 2.783-.591 2.918-.46V0H0Z"/>
<path transform="matrix(4.1666667,0,0,-4.1666667,3525.7208,2626.0809)" stroke-width=".4" stroke-linecap="butt" stroke-miterlimit="10" stroke-linejoin="miter" fill="none" stroke="#ffffff" d="M0 0C0-.324 .106-.594 .319-.809 .532-1.023 .844-1.131 1.254-1.131 1.865-1.131 2.299-.801 2.555-.141 2.709 .255 2.786 .71 2.786 1.223 2.786 1.678 2.722 2.056 2.593 2.359 2.36 2.909 1.938 3.185 1.327 3.185 .874 3.185 .531 3.04 .299 2.751 .066 2.463-.05 2.128-.05 1.748-.05 1.352 .068 1.028 .303 .776 .539 .524 .858 .398 1.263 .398 1.462 .398 1.648 .436 1.821 .511 1.994 .586 2.139 .717 2.256 .902 2.182 .26 2.056-.167 1.878-.376 1.7-.586 1.485-.691 1.233-.691 1.099-.691 .978-.662 .87-.604 .661-.492 .549-.291 .533 0H0ZM1.333 .861C1.042 .861 .83 .942 .697 1.103 .564 1.263 .498 1.48 .498 1.753 .498 2.042 .574 2.273 .725 2.445 .876 2.618 1.081 2.704 1.339 2.704 1.579 2.704 1.777 2.629 1.932 2.477 2.087 2.326 2.165 2.097 2.165 1.789 2.165 1.445 2.079 1.205 1.906 1.068 1.733 .93 1.542 .861 1.333 .861Z"/>
<path transform="matrix(4.1666667,0,0,-4.1666667,0,2655.3167)" stroke-width=".4" stroke-linecap="butt" stroke-miterlimit="10" stroke-linejoin="miter" fill="none" stroke="#ffffff" d="M849.911 8.458H850.523V9.097H849.911ZM849.911 6H850.523V6.639H849.911Z"/>
<path transform="matrix(4.1666667,0,0,-4.1666667,3552.2347,2612.8363)" stroke-width=".4" stroke-linecap="butt" stroke-miterlimit="10" stroke-linejoin="miter" fill="none" stroke="#ffffff" d="M0 0C-.604 0-1.021-.318-1.251-.955-1.374-1.297-1.436-1.706-1.436-2.183-1.436-2.798-1.333-3.288-1.128-3.653-.882-4.091-.507-4.31-.003-4.31 .556-4.31 .958-4.042 1.204-3.507 1.374-3.134 1.459-2.662 1.459-2.092 1.459-1.49 1.365-1.017 1.178-.671 .936-.224 .543 0 0 0ZM-.007-3.829C-.348-3.829-.588-3.631-.729-3.234-.821-2.975-.867-2.631-.867-2.203-.867-1.635-.795-1.205-.651-.913-.508-.621-.28-.475 .031-.475 .369-.475 .597-.628 .715-.936 .832-1.244 .891-1.636 .891-2.112 .891-2.773 .809-3.224 .647-3.466 .485-3.708 .266-3.829-.007-3.829Z"/>
<path transform="matrix(4.1666667,0,0,-4.1666667,3560.474,2626.0809)" stroke-width=".4" stroke-linecap="butt" stroke-miterlimit="10" stroke-linejoin="miter" fill="none" stroke="#ffffff" d="M0 0C0-.324 .106-.594 .319-.809 .532-1.023 .844-1.131 1.254-1.131 1.865-1.131 2.299-.801 2.555-.141 2.709 .255 2.786 .71 2.786 1.223 2.786 1.678 2.722 2.056 2.593 2.359 2.36 2.909 1.938 3.185 1.327 3.185 .874 3.185 .531 3.04 .299 2.751 .066 2.463-.05 2.128-.05 1.748-.05 1.352 .068 1.028 .303 .776 .539 .524 .858 .398 1.263 .398 1.462 .398 1.648 .436 1.821 .511 1.994 .586 2.139 .717 2.256 .902 2.182 .26 2.056-.167 1.878-.376 1.7-.586 1.485-.691 1.233-.691 1.099-.691 .978-.662 .87-.604 .661-.492 .549-.291 .533 0H0ZM1.333 .861C1.042 .861 .83 .942 .697 1.103 .564 1.263 .498 1.48 .498 1.753 .498 2.042 .574 2.273 .725 2.445 .876 2.618 1.081 2.704 1.339 2.704 1.579 2.704 1.777 2.629 1.932 2.477 2.087 2.326 2.165 2.097 2.165 1.789 2.165 1.445 2.079 1.205 1.906 1.068 1.733 .93 1.542 .861 1.333 .861Z"/>
</g>
<use data-text="1" xlink:href="#font_26_20" transform="matrix(25,0,0,-25,3420.374,2630.3167)"/>
<use data-text="7" xlink:href="#font_26_26" transform="matrix(25,0,0,-25,3434.274,2630.3167)"/>
<use data-text="/" xlink:href="#font_26_18" transform="matrix(25,0,0,-25,3448.1739,2630.3167)"/>
<use data-text="9" xlink:href="#font_26_28" transform="matrix(25,0,0,-25,3455.124,2630.3167)"/>
<use data-text="/" xlink:href="#font_26_18" transform="matrix(25,0,0,-25,3469.024,2630.3167)"/>
<use data-text="1" xlink:href="#font_26_20" transform="matrix(25,0,0,-25,3475.974,2630.3167)"/>
<use data-text="7" xlink:href="#font_26_26" transform="matrix(25,0,0,-25,3489.874,2630.3167)"/>
<use data-text=" " xlink:href="#font_26_3" transform="matrix(25,0,0,-25,3503.7742,2630.3167)"/>
<use data-text=" " xlink:href="#font_26_3" transform="matrix(25,0,0,-25,3510.7244,2630.3167)"/>
<use data-text=" " xlink:href="#font_26_3" transform="matrix(25,0,0,-25,3517.6744,2630.3167)"/>
<use data-text="9" xlink:href="#font_26_28" transform="matrix(25,0,0,-25,3524.6246,2630.3167)"/>
<use data-text=":" xlink:href="#font_26_29" transform="matrix(25,0,0,-25,3538.5245,2630.3167)"/>
<use data-text="0" xlink:href="#font_26_19" transform="matrix(25,0,0,-25,3545.4747,2630.3167)"/>
<use data-text="9" xlink:href="#font_26_28" transform="matrix(25,0,0,-25,3559.3746,2630.3167)"/>
</svg>
